<svg xmlns="http://www.w3.org/2000/svg" id="Layer_2" viewBox="0 0 119.2179 120.0262" width="119.2179" height="120.0262"><metadata><rdf:RDF xmlns:rdf="http://www.w3.org/1999/02/22-rdf-syntax-ns#" xmlns:dc="http://purl.org/dc/elements/1.1/"><rdf:Description><dc:creator>RealFaviconGenerator</dc:creator><dc:source>https://realfavicongenerator.net</dc:source></rdf:Description></rdf:RDF></metadata><g id="Components"><g id="_15642fc9-7de5-4e37-afb7-15d607532abd_1"><g><path d="m118.7496,60.1072c-.0229.5554.3911.3558.4683.4397-.1155-.9358-.5767-.4141-.4683-.4397Z" style="fill:#4d4444;"></path><polygon points="117.0509 51.1233 117.2477 51.2541 116.601 50.014 117.0509 51.1233" style="fill:#4d4444;"></polygon><path d="m115.1302,42.9034c-.4685.971.989,2.8963,1.043,4.4418l-.103.2768.7136.5389c-.2607-.884-.5808-1.893-.9265-2.8189-.3499-.9255-.6357-1.7925-.7271-2.4387Z" style="fill:#4d4444;"></path><path d="m115.0406,38.0918c-.1533.3687-.5881-.8404.314,1.034-.0098-.1078-.0044-.142-.0056-.2066-.0725-.1724-.166-.4123-.3083-.8274Z" style="fill:#4d4444;"></path><path d="m115.349,38.9192c.3535.8433-.001-.6399,0,0h0Z" style="fill:#4d4444;"></path><path d="m113.5614,35.105l.7209.9926c.0471-.2951-.363-1.2914-.0901-.977-.6355-1.0746-.675-.7664-.6309-.0156Z" style="fill:#4d4444;"></path><path d="m112.6097,34.305c.127.1666.25.3353.3633.5092.0176-.1278-.0247-.2901-.3633-.5092Z" style="fill:#4d4444;"></path><path d="m113.715,35.9158l-.7419-1.1016c-.0325.2073-.2354.3203.3206.5137-.2358-.0083.0547.1406.4214.5879Z" style="fill:#4d4444;"></path><path d="m113.9213,36.637c.1423.6695.3579,1.5065-.3213.5033.9316,2.0626,1.3008,1.5668.3213-.5033Z" style="fill:#4d4444;"></path><path d="m114.2892,42.7205c.0269.2952.0557.5887.0623.8879l.4343.6528c-.2046-.3292-.2849-1.6639-.4966-1.5408Z" style="fill:#4d4444;"></path><path d="m110.3104,28.3505c-.1689.0178-.125.5552-.2429.7314.2126.2143.4065.4412.6035.6672-.1252-.4545-.5198-1.2264-.3606-1.3986Z" style="fill:#4d4444;"></path><path d="m110.0675,29.0818l-.9312-.97c.6074,1.0042.8284,1.1203.9312.97Z" style="fill:#4d4444;"></path><path d="m111.8026,34.4668c.5022.5439.9294,1.1313,1.4009,1.7047-.5208-.703-1.0281-1.4036-1.5945-2.0669l.1936.3622Z" style="fill:#4d4444;"></path><path d="m107.455,24.1362l.7253.4061c-.3994-.2673-.8101-.5213-1.2327-.7616l.5073.3556Z" style="fill:#4d4444;"></path><path d="m105.3011,21.536c.5906.2379-.1272-.9003.3984-.5663-.6494-.6649-1.3452-1.1057-1.9875-1.4743.5981.469,1.0928,1.1088,1.5891,2.0406Z" style="fill:#4d4444;"></path><path d="m102.6566,18.8623c.3079.2217.666.4164,1.0554.6331-.3245-.2433-.6655-.4613-1.0554-.6331Z" style="fill:#4d4444;"></path><path d="m107.9496,26.211c.0164-.1357.0996-.4334-.2493-1.0987l-.0457.6727c.0898.1299.1917.2769.2949.426Z" style="fill:#4d4444;"></path><path d="m107.6539,25.8078l.0007-.0228c-.3162-.4648-.5354-.7871-.6292-.9253.0793.1197.2686.405.6284.9481Z" style="fill:#4d4444;"></path><path d="m108.0238,26.3185c-.0273-.0395-.0474-.0686-.0742-.1075-.0054.0647.0005.0972.0742.1075Z" style="fill:#4d4444;"></path><path d="m110.5441,31.2761c-.592-.5507-1.5981-1.7851-1.1497-.2751.5244.3253.2642-.544,1.1497.2751Z" style="fill:#4d4444;"></path><path d="m107.9542,27.1432c.2405.3949.4497.8098.675,1.2129.0803-.0839.0828-.385.3879-.1286-.3564-.363-.6951-.735-1.063-1.0843Z" style="fill:#4d4444;"></path><polygon points="107.4503 26.668 107.9542 27.1432 107.6866 26.704 107.4503 26.668" style="fill:#4d4444;"></polygon><path d="m103.9869,20.9081c-.5305-.339-.979-.8212-1.5232-1.3331.5007.6257,1.0042,1.2796,1.5146,1.8727.1733-.0049.5828.0999.0085-.5396Z" style="fill:#4d4444;"></path><path d="m105.8031,23.2675c-.032-.0283-.0718-.0636-.1021-.0903.0227.0874.0544.1466.1021.0903Z" style="fill:#4d4444;"></path><polygon points="97.1378 14.5392 97.1769 14.6758 97.245 14.6371 97.1378 14.5392" style="fill:#4d4444;"></polygon><path d="m104.0057,21.6008c.3289.5058.6416.7076.9668.8822-.3264-.3118-.658-.6526-.9941-1.0353-.0784.0021-.1145.0214.0273.1531Z" style="fill:#4d4444;"></path><path d="m101.0712,17.5271c.1753.2761.3696.5828.5735.904-.1082-.3224-.4121-.9086-.5735-.904Z" style="fill:#4d4444;"></path><path d="m105.6678,22.9438c.0237.0198.0454.0378.0706.059-.0505-.2128-.0703-.1653-.0706-.059Z" style="fill:#4d4444;"></path><path d="m105.6678,22.9438c-.2397-.2049-.4712-.33-.6953-.4608.2529.2643.4973.5025.7285.6941-.0222-.0773-.0327-.1648-.0332-.2333Z" style="fill:#4d4444;"></path><path d="m93.7223,15.3254c.3049-.2414,1.7766.3726,2.4729,1.5796,1.1658.6173,1.4036-.9009.9817-2.2292-.1465.1122-.2314.2061-1.4563-.4497.2683.4409,1.9849,2.3247.8889,1.8505-1.4778-1.0068-1.0425-1.0268-1.5864-1.7443.2744.8337-2.2239-.8257-2.3557.0171.4734.2188.9199.4773,1.377.7254-.0471.1065-.5938-.094-.322.2505Z" style="fill:#4d4444;"></path><path d="m99.1283,16.4305l.4436.3549c-.4148-.504-.6589-.9205-1.1052-1.715-.8459-.4771-1.0874-.4914-1.2217-.4332.6877.6291,1.3955,1.2351,2.0635,1.8835l-.1802-.0901Z" style="fill:#4d4444;"></path><path d="m101.4015,18.5547c-.6023-.0321-1.7202-.8076-1.4453.0875,1.1853,1.1248,1.0564.5653,1.8792,1.1405-1.9155-1.8534.7036.3898-.4546-1.1783.4163.33.7607.6585,1.083.9707-.2957-.3862-.5713-.7692-.8191-1.144.0093.0249.0156.0424.0234.0635l.0098.0082-.0066.0029c.0417.1216.0449.1721-.0232.0556-.01-.0027-.0339-.025-.0452-.0345-.0554.0289-.127.0295-.1997.0262-.4741-.6252-.0054-.1677.1997-.0262.0212-.0083.0503-.007.0684-.0212l-.0032-.011c-.6707-.6028-1.4016-1.1404-2.0962-1.7092.3655.4423.9077.9042,1.8296,1.7693Z" style="fill:#4d4444;"></path><path d="m107.8868,30.2812c-.011-.0878.0171-.101.0405-.1226-.1355-.1136-.2004-.1478-.0405.1226Z" style="fill:#4d4444;"></path><path d="m107.5299,29.2422c.1528.1269.3838.1675.6794.7114.1787.5187-.1772.1063-.282.205.2993.2472.9512.9439.5139-.1589l-.1499-.1252c-.4402-.9616-.7314-2.4109-.5835-2.2893-.1536.4784-.2354.8627-.178,1.657Z" style="fill:#4d4444;"></path><path d="m104.6385,23.7885c-.4971-.5418-1.0417-1.0408-1.5718-1.5483l.4443,1.0829.135-.1862c.7266,1.0115.7561.6422.9924.6516Z" style="fill:#4d4444;"></path><path d="m97.0802,14.2062l.5173-.1542c-.4612-.1286-.9507-.2158-1.4202-.3201l.9028.4743Z" style="fill:#4d4444;"></path><polygon points="94.7494 12.4415 95.0721 12.1914 94.3019 11.9296 94.7494 12.4415" style="fill:#4d4444;"></polygon><path d="m11.3932,88.6298l.3993.4672c-.1748-.229-.297-.3708-.3993-.4672Z" style="fill:#4d4444;"></path><path d="m9.3262,84.7571l-.2244-.0103c.1897.1343.2986.1732.2244.0103Z" style="fill:#4d4444;"></path><path d="m27.2623,9.5335c-1.0022.2026-2.2375.3148-1.8921.622l.489.2013c.5237-.4283.9856-.6668,1.4031-.8233Z" style="fill:#4d4444;"></path><path d="m2.5425,49.2536c.0571-.0773.1172-.1583.1764-.2385-.0957-.2484-.1854-.4811-.2666-.6918.0297.2816.0415.5955.0902.9304Z" style="fill:#4d4444;"></path><path d="m4.1929,50.2241l-.4827,1.111c.1432-.2453.3019-.6025.4827-1.111Z" style="fill:#4d4444;"></path><path d="m27.9198,105.6324c.2737.015.5452.0298.8252.0284-.9041-.6072-.6287-.1623-.8252-.0284Z" style="fill:#4d4444;"></path><path d="m67.3488,1.2854c-.7981-.2727-1.4475-.4269-2.0222-.5206.9697.3734,1.7102.8449,2.0222.5206Z" style="fill:#4d4444;"></path><path d="m6.5004,89.3555c.269.3109.4314.4158.5098.3581-.27-.321-.4594-.4839-.5098-.3581Z" style="fill:#4d4444;"></path><path d="m62.933.5658c.1431.0544.2849.0872.4307.1349.6099-.0188,1.2285-.0553,1.9629.0641-.7136-.276-1.5605-.4305-2.3936-.199Z" style="fill:#4d4444;"></path><path d="m104.4469,91.3203c.0513-.0416.0994-.101.1494-.1364-.0386-.0489-.0876.0233-.1494.1364Z" style="fill:#4d4444;"></path><path d="m117.6879,68.4619c-.0073.2704-.0625.7059-.1091,1.1174.0549-.1954.0952-.5322.1091-1.1174Z" style="fill:#4d4444;"></path><path d="m84.7855,6.1938c.5725.2445.1121-.0057,0,0h0Z" style="fill:#4d4444;"></path><path d="m86.6632,9.0737c-.1375-.0157-.2537-.0054-.3145.0758.0935-.0695.1997-.0896.3145-.0758Z" style="fill:#4d4444;"></path><path d="m56.8488,3.1614c-.0173,0-.0313-.0001-.0513-.0002.179.0805.1482.0651.0513.0002Z" style="fill:#4d4444;"></path><path d="m85.5343,6.7893c-.1836-.1532-.4023-.3169-.6504-.4759.1006.0865.2966.2357.6504.4759Z" style="fill:#4d4444;"></path><path d="m85.5135,6.5483c.1836.1126.3276.2008.4648.2851.1028-.0287.061-.1011-.4648-.2851Z" style="fill:#4d4444;"></path><path d="m83.9867,5.8576c.3267.1404.6201.2958.8972.4558-.0986-.0768-.1345-.12-.0984-.1196-.1682-.0708-.4055-.1707-.7988-.3362Z" style="fill:#4d4444;"></path><path d="m66.2018,116.2348c.0398.0087.085.0119.1289.025.5559-.2521.3052-.1913-.1289-.025Z" style="fill:#4d4444;"></path><path d="m18.1615,22.8135c.0154-.0224.0168-.0403.0298-.0616-.022.0161-.0496.0364-.0696.0509l.0398.0107Z" style="fill:#4d4444;"></path><path d="m17.0385,24.5611c.1677-1.0088.5322-1.3655,1.0833-1.7583l-1.3938-.3432c.095.7103.1985,1.4109.3105,2.1015Z" style="fill:#4d4444;"></path><path d="m17.6813,97.0276l-.6399-1.3338c1.6074.8837,2.2434,1.935,1.7852.5817-.5569.3699-1.5242-.6178-2.4004-1.679-.4385-.5306-.8772-1.0604-1.2832-1.4177-.3857-.3723-.7439-.5706-1.0483-.4129l-.3142-.9346c.1458.2275.2361.2166.3794.4415-.5286-1.8512-1.59-.5582-2.7314-2.6797-.3491-.7643-.4497-1.3734-.0352-.9634l-1.2124-1.4343c-.2397-.4832.0284-.4773.2714-.0021-.4912-.7997-.927-1.6316-1.3959-2.4477l.0455.0011c-.3795-.2601-1.0382-.9647-1.3575-1.3163-.1201-.7383.281.2717.359.033-.3114-.4334-.6417-.8622-.9418-1.3071.0785-.7248.886.3452,1.2999,1.3371.6417-1.8642-.8794-1.0392-1.2665-4.2587.2141.4406.4606.8677.688,1.3.3536-1.1403-.2664-2.1103-.3258-3.7983-.121.4198-.095,3.497-.9508,2.0198-.0529-.4877-.2172-1.0889-.7567-1.8785.4587-.1514.1047-.9681-.2262-2.0306l.6384-.0936c-.5068-1.0945-.7568-.9369-1.2102-1.5566-.2417-1.3246.1774-1.6928.5404-2.0809-.2722-2.1096-.521,1.6038-1.0835-.8658-.048-.8989-.1711-1.6443-.3402-2.4334-.1801-.787-.4703-1.6081-.7223-2.6685.1244-1.2708.4066.1881.5551-.2756l-.5938-1.0731c-.0087-.2731.1547-.1934.2371-.1534-.2472-.9272-.6473-.0407-.8643-1.5257-.3494-.1913-.137-.9714.1191-1.9135.2805-.9449.5077-2.0457.1772-2.9846.2158-.4401.3746.2408.6324.1167-.3324-2.5348-.2429-2.1631-.6729-4.3124.2112-.5705.4203-1.1368.6741-1.6918-.7037,1.2056-.9731-.5139-1.1677-2.0815-.3105.4203-.5819.7844-.7252,1.037.0255-.8094.0496-1.624.1346-2.431.1682-.2619.3274.0253.5004.4637-.0149-.1701-.031-.3325-.051-.4608.4235-.7838.6818-.2612.8951.4034-.1935.251-.3878.5032-.5775.7492.2776.6566.6058,1.2663.9952,1.2161-.0459-.1623-.0571-.4613-.0356-.7846.0769.1691.1526.2814.2275.2254.0846-.0637-.0281-.3322-.0951-.7359l.8157-.3635-.2478-.1852c.3696-.9517.7312-1.8971,1.1683-2.8146-.025-.5648-.0782-1.1252-.123-1.7008-.0231-.5688-.0448-1.1551-.0392-1.7813-.0092-1.2584.1956-2.6442.7393-4.3365.1199,1.0038.7085.5054,1.2573.7954-.9536.6266-.7808,2.5711-1.4391,4.213.3633-.8591.5757-.5656.5983-.3102.1252-1.0686.3621-2.1086.5586-3.1755.4392.2579.5918-.4848,1.1362-1.1459-1.1794.166.3539-2.4424.7174-3.7224.334.0856.4974.521-.2931,1.8848,1.4703-1.1888-.0488-2.5669,1.3962-3.7533-.1864.3408-.3362.4973-.2633.7134.0952-.465.4724-1.1522.8225-1.6445.3549-.4901.7102-.7659.6897-.4729l-.202.3277c.3713-.5236.8198-1.1945,1.2759-1.9198.47-.7161.9863-1.4607,1.4199-2.1838.9185-1.406,1.6101-2.6657,1.417-3.0816.0996.0511.5664.9103.6099,1.1422.238-1.761.5315-3.5788.9629-5.3749.25.7963,2.5654.8893,1.4028,2.7061.5056-.3591,1.073-.8428,1.8159-1.9081-.3723.205-1.4937-.026-1.1292-.4751,1.7153-.4967,1.0864-.4665,2.9751-1.2456-.5754.2906-.8198-1.0122-.0325-1.6459-.0056.2315.7991.8039.606,1.1289.3655-.8193.7466-1.6457,1.1755-2.4397-.3618.5417.5129.8091,1.1343.725-.1672-.0085.2502-.3301.7642-.7107.5234-.368,1.1614-.7677,1.3918-1.0043l-.9961.3882c2.3359-1.4592,1.3489-2.8881,3.7886-4.3234-.1814.3726.0208,1.6369,1.2986,1.0659.2378-.8135,1.1389-3.8569,3.322-5.3318l.5828.0977c.5435-.3819,1.0859-.7762,1.6543-1.1206-.4163.6062-1.1985,1.7221-2.0242,2.8066-.8235,1.0981-1.6428,2.2653-2.2603,2.9763,1.0359-.2477.4375.2096,1.7886-.5181.6177.0302-.5288.7973-.917,1.0157,1.0818-.478,2.1506-.9725,3.2598-1.3733-.2109-.2737.3374-.7066.9016-1.132.5742-.3985,1.168-.7786,1.001-1.0153-1.1404.6671-2.2126,1.4539-3.2908,2.1841-.4419-.5052,1.2332-2.7323,3.7446-3.5378.7056.0091-.0347,1.3.1018,1.4872.2092-.3643,2.1216-1.2456,2.3997-1.1568l-.9055.6856c1.4048-.2153,1.9177-1.6035,3.7505-1.4344.5786-.14,1.9048.4004,1.908-.0048-1.0986-.5343-1.9087-2.7817-1.385-3.4941.2324-.0115,3.3398-.0211,4.0889.2767,1.0776.4186-1.2092,1.6721-.282,2.0313,0-.1865.4905-.5042.7009-.6158.6406.0447-.1562.606,1.1565.2866.1206-.7071,2.739-.2907.5503-.6529,1.2983-.3443,1.418-.0764,2.968-.2289-.5449-.3865,1.281-1.6317,2.6577-1.8692-.0732.1752.2422.3928.3931.4922.6956-.0022,1.3105.0131,1.8813.0364.5706.0425,1.0969.1075,1.6162.1614,1.04.0928,2.0479.2371,3.3313.3491.2256.1776,1.4358.483.8823.7269.3755-.0771.7358-.2615,1.5232-.179,1.4351.7766-1.7515-.1302-.6846.7193.1392-.3693,2.0823-.3217,3.2283-.3306-.1187-.3228-.7556-.496-1.5129-.5111-.7573-.0174-1.6206.0598-2.1912.1116.042-.4198.5742-.7875,1.4573-1.0535.8853-.2867,2.1121-.4029,3.5127-.3402,2.2063.214.8218.727,1.2224.6783.9929.2668,1.7222.3596,2.3137.3715.5845.0379,1.0315-.0108,1.4568-.0518.8486-.0833,1.6252-.1447,3.165.7176,1.1189.9465-.2952,1.0294-.1345,1.4932-.8694-.1836-1.4783-.4899-2.0259-.775-.5518-.2691-1.0332-.5419-1.6145-.6958l1.3499.6478c-.5935.0172-1.7556-.1718-2.332-.4974.2395.1935.7681.4124,1.4709.6518.7073.225,1.5776.5096,2.4976.8446.9302.3049,1.8997.6844,2.8049,1.0889.916.3772,1.7461.8275,2.406,1.2505.5759.0626,1.531.2896,1.2109-.0923l-.9351-.3403c-.6577-.7733,1.9644.2304.8977-.4744.6855.1249,1.3972.3044,2.1628.5432.7673.2349,1.5547.5963,2.3179,1.1917l.0032.7093c.0564-.1732-.8958-.9388-1.4514-1.0374.825.1728,2.1167,2.1303,3.2427,1.9435-.3-.3565-.5938-.7295-.9136-1.0658,1.312.4473,3.1335.7997,4.4114,1.98-.2922-.9478-.355-.1742-.9639-1.4622.4094,1.3022-3.7083-2.4115-2.7551-.7102-.6687-1.3207-1.675-1.4152-2.8147-2.7854-.0481.2026.3408.609-.9075-.1422-.0852.0228-.2566.0193-.3638.014-.0361-.0262-.0491-.0355-.0803-.0581.0217.0208.0386.0369.0605.0578-.0696-.0015-.0774.0016.0227.021.2681.2364.4678.4583.5166.61-.4275.048-1.1362-.2086-1.855-.4533-.7234-.235-1.4395-.4967-1.8369-.5445-.7341-.4369.416-.0665.0801-.4549-.3965-.0528-.7949-.095-1.199-.1187.0725-.4546-1.8391-1.5275.1433-1.0284l-1.6931-.6888c-.9221-.6044-2.3098-1.1741-3.2373-1.2713-.8074-.3314-2.2329-.1178-1.4155-.2513-.9407-.1877-1.8899-.324-2.8403-.4374l-.0007-.1154c-1.3638-.3755-2.8372-.4106-4.321-.5894-1.5-.095-3.0149-.33-4.595-.8239-.4783.0219-.9631.0438-1.5249.0411-.5632.0181-1.2029.0044-1.9944-.0791l-.3047-.3963c-1.217.1032-3.6953-.3351-4.2026.1063-.6858-.4498-2.2014-.4665-3.7854-.1892-1.5933.2215-3.2449.6805-4.3281.7885l.0164.5124c-.7354.0999-1.4302.3282-2.1689.5461-.7388.2214-1.5081.4964-2.3572.8584l.2278.4012c-.7014.398-1.6951.5637-2.7883.8299-.5508.125-1.1301.2565-1.7222.3909-.5847.1626-1.1729.3654-1.748.6021.0938-.2212.7-.412,1.1521-.4786-.781.0353-1.5281.2432-2.2434.537-.7073.3146-1.3738.7371-2.0283,1.15-.6609.4014-1.2727.872-1.9067,1.241-.6318.3745-1.2798.6617-1.9475.8486-.5024.4767-.949.6695-1.4153.8079.0537-.0321.0979-.0671.1323-.1034-.0625.0298-.1516.08-.2419.1331-.2996.0774-.6052.1642-.9219.2847.2961-.059.5669-.1324.7942-.2094-.4438.2675-1.0686.7535-1.657,1.2582l-.5403-.2255c-.0503.0381-.0903.0684-.1431.1082-.7395.2637-.3848.5179.1548.6021-.2854.2679-.5122.5622-.6707.813-.9392-.2695-1.4944,1.3461-2.6338,1.216-.0815.3209-.7937.977-1.4548,1.6652-.635.7206-1.2146,1.4733-1.0845,1.9224-.0928-.0662-.2966.0408.0081-.2323-.7129.4675-1.3857.9923-1.769,1.6882l-.6851-.1927c-.2642.6195-.5078,1.2475-.7263,1.8886-1.0371.547-1.5276.7476-1.092-.3923-.6848,1.2255-.9878,1.6819-1.2595,2.1076-.271.4219-.5264.7985-.9812,1.9003l-.2368-.3389c-.4984.6577-.8837,2.0063-1.447,2.1942-.8401.5102-2.2051,2.3401-3.6072,4.5731-1.3649,2.259-2.7666,4.8981-4.0161,6.9458.7264-.1833.3696.2587-.0476.8285-.4032.5757-.8912,1.2791-.5042,1.5288-.3573.1553-.7472.7206-.688-.084-.3413,1.1737-.6891,2.0182-1.012,2.7779-.3226.7583-.5021,1.4707-.3638,2.3814-.3427.1929-.2463-.6126-.4713-.4194.0034.2062.0187.8116-.2092,1.0131-.2264.1972-.1259-.4052-.1349-.8129-.3341,1.2124-.2794,1.9398-.0505,2.4027.2197.4611.5969.6578.9653.8345-.6593,1.119-.7295,1.7533-.3608,2.7259-.3315.3742-.7286,1.0441-.552-.4772-.2463.8209-1.1727,5.1547-.5045,5.3067-.1819.2521-.1383,1.1901-.0817,1.4192-.2021,1.9099-.1924,2.0825-.1998,3.9674l.1174-.521c.7346.7482.1692,1.5569.2994,3.0709l-.0801-.0402c-.2299,1.7469-.0745,2.1213-.0084,2.4843.1057.364.1096.7209.0294,2.4619l.4526-.2419c.5325.0988.4753.8565.3678,1.8459-.0742.9814-.166,2.202.2054,3.1433l.1395-.7584c.2542.5011.0879,1.3006-.1407,2.1384-.2244.8341-.5254,1.7118-.42,2.2621-.0172.2566-.2511-.3306-.3937-.6458.1971,2.9821.7069.2072,1.4338,2.2443-.2067.4813-.9856-.2462-.6066,1.1773-.0115.389.587,1.3222,1.2017,2.3944.6763,1.0524,1.2955,2.2704,1.4313,3.2986.0579-.5067.1217-.9986.7118-.1687.6758,1.3474.8937,4.1945,2.3098,5.0104.0348.2036.0121.3012-.0404.3401.3943.4517.916,1.2509,1.5018,1.9366.5808.689,1.1522,1.3079,1.526,1.4773-.3843.8988.8118,2.3115,2.0194,3.4921,1.1871,1.2033,2.3698,2.1926,1.7882,2.6818.7925.9057,1.6389,1.7603,2.4939,2.6046l-.177.0407c1.5444,1.7241,2.425,1.9911,3.25,2.2716.3296.4235-.0566.2772-.1438.3076,1.168,1.2117,1.8201,1.8832,2.5513,2.3408.7263.462,1.448.8267,2.821,1.3102l-.0508.572c.7368.2307,3.603,3.4151,6.8462,4.4281-.0547.0349-.1602.0891-.4272.0307,1.7805.6112,3.6362,1.8726,5.3784,2.7704,1.7256.9224,3.3105,1.4636,4.2288.8243.812.138,1.6465.1823,2.4609.2707-2.9709-.9897.6628-.6259-.4875-1.2643,1.1812.2443,2.8928,1.356,1.4189,1.0652l-.2034-.1515c-.7903.8101,3.6958,1.2394,3.4922,1.8114,6.095,1.1517,12.209,1.8718,18.0776,1.2817-.2507-.2156-.4976-.4233-.7441-.6539.6731-.0495,1.3433-.1358,2.0156-.2025.5496.1017.7917.4763-.6614.6304.8193.3199,2.3796-.6552,2.3831-.8423,2.8516-.2075-.9558,1.0369-.0977.9016l1.1689-.2639-.28-.0368c.897-.4848.9307-.7429,2.6335-1.114,1.1082-.1055.655.3118,1.0872.241.0095.0509.1599.0413.6594-.131.8384-.1964,1.6697-.4244,2.5061-.6365l-1.1516-.2731c1.0156-.5761,2.3149-.6406.998-.9323.9641.2299,3.2756-.4188,5.4055-1.2997,1.072-.422,2.0789-.9421,2.9114-1.3067.8196-.3932,1.4321-.7057,1.7078-.753.6162-.5408,1.259-1.001,1.9502-1.4648.6956-.4546,1.4695-.86,2.2876-1.3758-.47.1584-1.0479-.2422.3799-1.0632.2397,1.4749,2.8525-1.1915,4.4912-1.28-.6731.1219.2461-.6494,1.0698-1.3903.8237-.7454,1.4976-1.5161.4966-1.2354,1.1206-.8271.3875.3279,1.3977-.1299,2.1514-2.5703,5.5784-4.8553,7.9949-8.2744-.1003-.1567-.7371.2184-.4004-.6337.6904-.3796,1.3289-.8119,1.9968-1.2354.3938-.7324-.3684-1.1664.9333-2.0852-.2378.0966-.5918.2355-.3455-.2526,2.5613-3.137,4.3289-6.9344,5.7429-10.8077,1.4233-3.8917,2.5127-7.8491,3.9658-11.8012-.5332,1.0475-.4338.3052-.2991-.5338-.1758.5322-.4268-.0789-.6809-.0077.3616-1.0926.7451-2.1967,1.0742-3.3185-.3052-.3447-.2466-1.2589-.1875-2.1419.0674-.882.0476-1.7361-.2522-1.9215l.0859,1.0833c-.3574-.7342-.7751-.2422-1.2458.3746-.4893.6192-1.0149,1.3617-1.4849,1.2232.3762.8021-.0249,1.7978-.4531,2.8839-.384,1.0986-.834,2.2708-.46,3.624-.2891.5086-.22-.5247-.4902-.2744.3101.7036.1987,1.4767-.2966,2.823l-.0625-.1809c-.4341,1.9495-.9019,3.3073-1.5095,4.6677-.2937.6843-.5977,1.3787-.9934,2.1359-.3821.762-.7791,1.6158-1.3174,2.5917l.5688-.1085c-.4548.8514-.6724.9729-.9639,1.3304.1941,1.314,1.1477-2.4417,1.457-1.2026-.699.3973-1.3962,1.9379-2.1924,3.3809-.7871,1.4437-1.6372,2.8-2.3289,2.8732-.7979,1.2326.6995-.075-.1028,1.1638l-.46.1684.1179.5237c-.571.7889-1.1909.9517-1.4065.843.1597-.1728.3259-.5791.4526-.7938-.5049.4078-.9851,1.134-1.385,1.7995-.4011.6635-.7681,1.2312-.9382,1.3688l1.0103-.9979c-2.1675,3.4121-5.825,6.6927-8.4114,9.6367l.3689-.0237c-.9868,1.1507-1.543,1.4276-2.084,1.7647-.5469.3342-1.1594.6295-2.4431,1.6535l.0667-.1129c-.397.5776-1.0879,1.1337-1.8591,1.6013.5547-.6668-1.5786.4085-.8198-.4224-2.5422,2.0176-1.1716,1.1212-2.6577,2.8878l-.615-.1014c-.5061.6176-.4592.8517-1.9299,1.6312,1.1003-.8464-1.1958-.0798.0017-1.0824-.8684.1694-1.5637.4288-2.1572.72-.5994.2758-1.1062.5596-1.5603.8276-.9023.5452-1.6489.9013-2.5798.5893-1.1672,1.4932,3.0015-.43,2.2322.0481.4058.0201.1707.3191-.3044.6538-.4814.3148-1.2102.6426-1.7458.7711-.5322.1703-1.0813.0145-1.8284-.1202-.7512-.1448-1.6609-.145-3.0007.1482.2676-.0566.2671-.1362.5332-.193-1.0598-.0454-1.8774.8433-3.2078.6223-.5857.7347-1.6138.2524-1.6921,1.0703l2.4714-.6273c-.6875.2274-1.3247.6291-2.103.9728-.7771.3394-1.7092.5503-2.9238.4871.1694-.1825.8508-.481,1.3174-.6583-.7183-.1537-1.3101.3444-2.0547.1545.0674-.3901.8237-.5208,1.7458-.6635.4612-.0694.9651-.134,1.4414-.2379.4729-.1246.9192-.2802,1.2676-.4958-.7678-.1699-2.7659,1.0104-2.1282.0535-.469.6091-1.1509.6611-1.9202.6924-.7761-.0031-1.6367-.041-2.5415.4473l.095-.4832c-.2861.1083-.8848.3447-1.4277.3447l.9497-.6387c-1.479.556-2.8789-.3586-4.2954-.141,2.9849.0496.6633.6051,1.9373.945-3.7585.567-2.1226-1.2114-6.2202-1.3079.5559-.0064,2.0627.4469,1.1729.6042-.782-.1377-1.7942-.452-2.2378-.7643-2.7188-.2449.3525.5366-.8418.6791-.8491-.6751-1.3674.0256-2.6074.0006l.0798-.4759c-3.0144-.9136-1.0266.8216-3.7329-.1636l1.3298-.3801c-.4902-.0593-.9875-.0972-1.4763-.1745l.4302-.452c-1.6313-.0538-2.1128-.239-3.542-.8931.2402.4404-.4651.7664-1.8071.3289-.8005-.5966.6511-.2283-1.2175-.8857.532-.1277,1.0955-.269,1.762.4091.136-.1201.5151-.1456.6504-.2638-.8599-.6064-2.354-.9566-3.0193-1.2068.2463.1164.5393.2597.6697.385-.9683-.1234-1.927-.299-2.8872-.501-.3362-.3507.0522-.3349.4312-.32-.5425-.1982-1.0139-.1346-1.7922-.486.3696-.2549.4939-.6218,1.655-.307-.8835-.218-1.7366-.5155-2.6067-.7946-.0872-.2289-1.0042-1.0492-.6252-1.0149-.5842-.4731-1.4663-.7507-2.3997-1.0913-.9058-.3802-1.8992-.7703-2.6208-1.4702-.127.003-.3367-.0571-.7136-.2563-.7439-.5676-1.3655-1.2044-2.0396-1.8354-.6953-.6061-1.4353-1.2108-2.4412-1.7418-.1575-.455-.3298-.8857-.4644-1.3502-1.3574-1.0753.6335,1.8285-1.644.022-1.646-1.265-.1379-.953-.5029-1.5994-.4739-.2408-1.1472-.5576-1.8179-1.0383-.6624-.486-1.2795-1.1757-1.6824-2.0661.5095.3853.7498.8211,1.1697,1.2268Zm-11.0702-18.2294c.2183.3678.7969,1.0332.6527,1.4126-.6952-.2437-.584-.685-.6527-1.4126Zm-2.4377-32.5161c.0681.3448-.1066.8018-.4122,1.2987.0553-.3994.1643-.843.4122-1.2987ZM78.3495,3.9907c-.0208.0012-.0354.0024-.0532.0067-.8938-.5009-.5789-.3161.0532-.0067Zm1.8882.911c.219.0139.2302-.0536.1719-.149-.1802.0615-.6169-.106-1.1038-.328.0969.1678.3145.3515.9319.477Zm-7.1748,113.3488l-.4229-.0319c.8535-.3397.6357-.1606.4229.0319Z" style="fill:#4d4444;"></path><path d="m4.0034,50.1019c-.101.1021-.1952.1181-.2893.1292.0504.1786.1422.198.2893-.1292Z" style="fill:#4d4444;"></path><path d="m27.7677,105.6242l.0498.0421c.0454-.0031.0774-.0162.1023-.0339l-.1521-.0082Z" style="fill:#4d4444;"></path><path d="m49.2262,5.8589c-.4048.0018-.6406-.0458-.804-.1094.0005.1198.1982.1859.804.1094Z" style="fill:#4d4444;"></path><path d="m90.5436,9.0961c-.3967-.2153-.8149-.394-1.2246-.5845.5771.3069.7292.5063.9629.7537.0342-.112-.0984-.3904.2617-.1692Z" style="fill:#4d4444;"></path><path d="m97.8409,18.3806c.176.0863.2927.2702.468.3545l.1165-.1986c-.593-.5451-1.1191-.7972-.5845-.1559Z" style="fill:#4d4444;"></path><path d="m90.7274,11.1175c-.1399.4087.6494.6982,1.4314,1.1849-.0459-.0308-.0906-.0583-.1326-.0942.5479-.3132-.3647-.7334-1.2988-1.0907Z" style="fill:#4d4444;"></path><path d="m92.3405,12.4146c.2417.1486.4839.3076.6985.4842.2207-.1221-.2542-.2389-.6985-.4842Z" style="fill:#4d4444;"></path><path d="m82.7899,5.6566c.363.2786.4651-.3595.6287-.1039.6624-.2793-2.969-.6357-.6287.1039Z" style="fill:#4d4444;"></path><polygon points="90.6156 12.634 90.6185 12.0408 89.9711 12.1053 90.6156 12.634" style="fill:#4d4444;"></polygon><path d="m84.6234,8.7463l1.2249.7832c.02-.0842.2068-.0439.426.0262-.7866-.4217-1.615-.9579-1.6509-.8094Z" style="fill:#4d4444;"></path><path d="m86.2743,9.5557c.4067.226.7896.4475,1.0566.5022-.2229-.1178-.696-.3842-1.0566-.5022Z" style="fill:#4d4444;"></path><path d="m88.8795,11.6996l-.3047-.3165-.8623-.5381c.3894.2864.7937.5459,1.167.8546Z" style="fill:#4d4444;"></path><path d="m69.9376,3.6559l-1.5833-.1369c-.1858.1413.219.3203.8076.356.3923-.0516.9827-.0135.7756-.2191Z" style="fill:#4d4444;"></path><path d="m74.223,6.0899c-.3743-.2145-.3721-.33-.5571-.5543l-.2065.5869.7637-.0327Z" style="fill:#4d4444;"></path><path d="m69.8124,5.1744c-.1887.1415-2.2822.0952-.365.3976.1846-.1512,1.7271.011.365-.3976Z" style="fill:#4d4444;"></path><polygon points="46.5604 4.643 46.9464 4.5458 46.6796 3.5623 46.5604 4.643" style="fill:#4d4444;"></polygon><path d="m28.8514,14.6815c1.6265-.7482.0144-.7654,1.5417-1.3636.23-.4343-1.2502.49-.9946.0859-.7788.8013-1.3308.9839-.5471,1.2777Z" style="fill:#4d4444;"></path><path d="m29.3986,13.4038c.1255-.1279.2549-.2692.386-.4316-.2324.2246-.3313.3461-.386.4316Z" style="fill:#4d4444;"></path><path d="m118.6705,63.9836c.1116-.4106.1755-.8246.262-1.2392l-.3628.7912c.0408.1493.0667.2983.1008.448Z" style="fill:#4d4444;"></path><path d="m117.994,61.5769l.6562-.2822-.5691-.7478c.022.2784.0647.8207-.0872,1.03Z" style="fill:#4d4444;"></path><path d="m6.9047,75.39l-.1737-.0398c-.1149.2141-.0546.4726.0646.9909l.1091-.9511Z" style="fill:#4d4444;"></path><polygon points="12.6879 89.5235 12.5559 89.2936 12.3279 90.0249 12.6879 89.5235" style="fill:#4d4444;"></polygon><path d="m21.3124,99.0111c-.3674-.3673-.8813-.7192-1.2227-1.118.8438.7567.8184,1.7341,1.2227,1.118Z" style="fill:#4d4444;"></path></g><path d="m78.4212,19.0783c.7712-.4741,2.0047-.1572,3.0849-.3143.7737,2.53.7737,4.7457-.1532,6.9614-.618,1.5845-1.3892,3.0092-2.1604,4.2768-.618,1.1078-1.236,2.056-1.6982,3.1638-1.0802,1.9014-2.7784,3.3235-4.7856,4.1171-1.2334.6312-2.7759-.3195-2.9316-1.7416,0-1.7416-.1532-3.4833.4622-5.2249.927-2.8495.4647-5.5392-1.8514-7.7549-1.6982-1.7416-4.6298-1.4247-6.019.6338-.1532.3143-.309.7909-.4622,1.265-.7712,2.2157-1.3892,4.4339-1.6982,6.6496-.4622,4.4314,1.2334,8.229,3.8586,11.3953,3.2406,3.9573,6.1722,8.0718,9.2596,12.1889.309.6338.618,1.265.927,1.8988.1532.7909.309,1.4247.618,2.0585,2.6226,4.5885,2.7759,9.4965,2.7759,14.5617,0,1.2676-.1532,2.5326-.1532,3.9573,0,.6338.1532,1.265-.1532,1.7416-1.236,2.3728-1.236,5.0652-1.8539,7.5952-.309,1.5845-.7712,3.1689-2.0047,4.2768-.4647.4741-.7737.9481-.927,1.4222-1.0802,2.6923-2.9316,4.4314-5.2478,5.699-.7712.3169-1.5424.9481-2.0072,1.5819-3.0849,3.3235-7.2524,3.8002-11.42,4.4314-.309,0-.4622-.1572-.7712,0-5.5568.7935-9.7244-2.2157-13.5829-5.5392-3.3939-3.1638-5.401-7.2808-6.1722-11.872-.309-2.2157-1.0802-4.2716-.927-6.4873.1558-1.7416,0-3.643.927-5.2249.309-.6338.4622-1.4247.618-2.056.6155-4.908,3.7028-7.9146,7.4082-10.2901,3.8586-2.5326,8.0237-2.5326,12.347-.9481,1.3892.6312,2.0047,2.6897,1.0802,4.1145-.618,1.1078-1.3892,1.8988-2.7784,1.8988-3.0874,0-4.7856,2.2157-6.1748,4.7483-.7712,1.4247-1.5424,3.1664-2.1604,4.7483-.309.9507-.618,1.9014-.618,3.0092-.1532,1.265,0,2.6897-.1532,3.9573,0,1.265.309,2.53.927,3.7976.6155,1.2676.9245,2.6897,1.5424,4.1171.4622,1.4222,1.3892,2.53,2.7784,3.1638,1.6982.9507,3.5496,1.7416,5.71,1.7416,1.236,0,2.3162-.3169,3.0874-1.1078.9245-.7909,1.6982-1.5819,2.4694-2.5326.7712-1.265,1.5424-2.5326,2.3136-3.8002,1.236-2.056,1.6982-4.4314,1.8539-6.964.3065-4.4314-.618-8.3887-2.3162-12.346-1.6982-4.1145-3.7028-7.9146-6.1722-11.5551-.4647-.9481-1.0827-1.7416-1.3892-2.6897-.4647-1.5819-1.6982-2.8495-2.1629-4.2742-.4622-1.5845-1.5424-2.8495-2.0047-4.2742-1.3892-4.1171-3.7054-8.0718-1.6982-12.6629.1532-.4741.309-.9507.309-1.265-.309-3.0092,1.0802-5.5418,1.6982-8.0744.6155-1.8988,1.6957-3.3235,3.2406-4.5911,2.1604-1.8962,4.6298-2.8495,7.0992-3.9573.7712-.3143,1.6982-.4741,2.4694-.6312,2.0072-.1572,3.7028.4741,5.5568.7909,2.0047.3169,3.2406,1.5819,4.783,2.8495,2.1604.1597,3.7054.1597,5.4035-.6338Z" style="fill:#278229;"></path></g></g></svg>